<?xml version="1.0" ?><!DOCTYPE svg  PUBLIC '-//W3C//DTD SVG 1.1//EN'  'http://www.w3.org/Graphics/SVG/1.1/DTD/svg11.dtd'><svg enable-background="new 0 0 500 500" height="500px" id="Capa_1" version="1.1" viewBox="0 0 500 500" width="500px" xml:space="preserve" xmlns="http://www.w3.org/2000/svg" xmlns:xlink="http://www.w3.org/1999/xlink"><path d="M412.226,87.133L88.29,412.367c41.458,40.974,98.435,66.279,161.33,66.279  c126.765,0,229.527-102.764,229.527-229.527C479.146,185.895,453.58,128.644,412.226,87.133z" fill="#EAEAEA"/><path d="M249.619,19.592c-126.765,0-229.527,102.762-229.527,229.527c0,63.87,26.096,121.639,68.197,163.248  L412.226,87.133C370.665,45.414,313.159,19.592,249.619,19.592z" fill="#D3D3D3"/><circle cx="249.062" cy="248.562" fill="none" r="243.438" stroke="#D3D3D3" stroke-miterlimit="10" stroke-width="5"/><g><path clip-rule="evenodd" d="M348.874,116c4.239,1.21,8.708,1.913,12.672,3.723   c14.088,6.436,21.943,21.008,20.141,36.521c-1.737,14.963-13.243,27.283-28.335,30.35c-0.674,0.137-1.334,0.346-2.331,0.609   c2.804,10.829,2.963,21.621-0.04,32.41c-2.997,10.769-8.735,19.796-16.705,27.311c-8.699-8.696-17.303-17.297-25.928-25.919   c1.615-2.19,3.631-4.388,5.037-6.924c5.147-9.282,3.013-20.741-4.856-27.185c-8.582-7.026-19.792-7.058-28.24-0.055   c-1.137,0.943-2.231,1.946-3.276,2.989c-18.366,18.332-36.725,36.671-55.067,55.025c-0.735,0.736-1.308,1.633-1.84,2.307   c-8.935-8.955-17.526-17.565-26.337-26.395c0.337-0.361,0.889-0.99,1.479-1.58c18.843-18.84,37.728-37.638,56.519-56.528   c10.011-10.064,21.979-16.101,36.047-17.706c7.119-0.813,14.256-0.329,21.244,1.507c0.577,0.152,1.172,0.238,1.669,0.336   c1.227-3.524,2.078-7.105,3.664-10.325c5.68-11.528,14.989-18.212,27.771-19.974c0.681-0.094,1.342-0.328,2.011-0.497   C345.74,116,347.307,116,348.874,116z" fill="#FFB140" fill-rule="evenodd"/><path clip-rule="evenodd" d="M344.172,382.471c-2.454-0.528-4.972-0.862-7.353-1.623   c-12.643-4.029-20.78-12.498-24.495-25.229c-0.097-0.332-0.188-0.668-0.305-0.994c-0.059-0.162-0.166-0.306-0.363-0.665   c-23.325,5.934-43.698,0.629-60.69-16.436c8.771-8.755,17.437-17.404,26.234-26.188c3.134,3.065,6.771,5.892,11.458,7.184   c8.865,2.445,18.896-1.267,24.01-9.079c5.059-7.726,4.636-18.306-1.055-25.381c-1.09-1.353-2.257-2.652-3.483-3.883   c-18.449-18.486-36.909-36.958-55.379-55.424c-0.614-0.613-1.335-1.12-1.708-1.427c8.823-8.874,17.436-17.539,26.226-26.382   c0.183,0.169,0.741,0.664,1.269,1.192c18.769,18.78,37.503,37.597,56.315,56.335c11.629,11.584,17.988,25.478,18.363,41.893   c0.112,4.91-0.741,9.843-1.178,15.062c1.271,0.319,2.763,0.669,4.239,1.071c16.301,4.435,27.207,20.058,25.909,37.103   c-1.267,16.637-14.416,30.34-31.036,32.366c-0.768,0.094-1.518,0.333-2.276,0.505C347.307,382.471,345.74,382.471,344.172,382.471z   " fill="#FF3939" fill-rule="evenodd"/><path clip-rule="evenodd" d="M154.508,116c3.188,0.792,6.505,1.258,9.544,2.437   c11.768,4.565,19.263,13.034,22.333,25.335c0.105,0.422,0.211,0.844,0.344,1.258c0.077,0.239,0.208,0.459,0.431,0.936   c22.001-4.252,40.979,1.554,56.619,17.369c-8.743,8.736-17.34,17.326-26.118,26.096c-1.054-0.896-2.452-2.15-3.919-3.32   c-8.34-6.653-21.224-5.761-28.828,1.975c-7.66,7.793-8.511,20.317-1.907,28.634c1.134,1.428,2.365,2.792,3.654,4.082   c18.405,18.415,36.824,36.815,55.258,55.203c0.673,0.671,1.531,1.156,2.06,1.547c-9.036,9.019-17.692,17.657-26.448,26.395   c-0.175-0.166-0.752-0.68-1.298-1.226c-18.851-18.832-37.663-37.701-56.559-56.485c-12.035-11.964-18.217-26.378-18.071-43.309   c0.047-5.419,1.162-10.83,1.805-16.394c-2.348-0.961-5.071-1.858-7.596-3.146c-13.661-6.966-21.294-21.386-19.315-36.268   c2.014-15.147,13.281-27.128,28.466-30.267c1.437-0.297,2.879-0.568,4.319-0.851C151.024,116,152.766,116,154.508,116z" fill="#5ED36E" fill-rule="evenodd"/><path clip-rule="evenodd" d="M149.282,382.471c-4.327-1.205-8.954-1.794-12.925-3.729   c-13.747-6.699-20.86-18.059-20.33-33.311c0.512-14.673,8.156-25.137,21.439-31.404c1.784-0.842,4.397-0.987,5.289-2.339   c0.782-1.186-0.337-3.606-0.578-5.488c-2.614-20.479,3.566-37.858,18.087-52.143c8.78,8.81,17.417,17.472,26.139,26.223   c-3.992,3.799-7.011,8.624-7.75,14.726c-0.986,8.146,3.489,17.184,10.641,21.187c8.196,4.587,17.692,4.035,24.492-1.467   c1.417-1.147,2.784-2.372,4.074-3.661c18.29-18.275,36.565-36.567,54.833-54.866c0.735-0.738,1.352-1.594,1.758-2.08   c8.889,8.876,17.536,17.515,26.321,26.285c0.216-0.298,0.052,0.007-0.184,0.242c-19.562,19.588-38.94,39.367-58.761,58.69   c-14.856,14.482-32.892,19.497-53.316,15.707c-1.361-0.253-2.36-0.588-2.961,1.289c-4.797,14.971-15.053,23.53-30.615,25.749   c-0.329,0.047-0.634,0.256-0.951,0.39C152.417,382.471,150.85,382.471,149.282,382.471z" fill="#3F87EF" fill-rule="evenodd"/></g></svg>