<?xml version="1.0" ?><svg baseProfile="tiny" id="Layer_1" version="1.2" viewBox="0 0 512 512" xml:space="preserve" xmlns="http://www.w3.org/2000/svg" xmlns:xlink="http://www.w3.org/1999/xlink"><g id="XMLID_1070_"><path d="M6,449h69.1V63H6V449z M50.3,71.9h17.3v15.5H50.3V71.9z M50.3,99h17.3v15.5H50.3V99z    M50.3,126.2h17.3v15.5H50.3V126.2z M50.3,153.3h17.3v15.5H50.3V153.3z M50.3,180.5h17.3V196H50.3V180.5z M50.3,207.6h17.3v15.5   H50.3V207.6z M50.3,234.7h17.3v15.5H50.3V234.7z M50.3,261.9h17.3v15.5H50.3V261.9z M50.3,289h17.3v15.5H50.3V289z M50.3,316.1   h17.3v15.4H50.3V316.1z M50.3,343.3h17.3v15.5H50.3V343.3z M50.3,370.4h17.3v15.5H50.3V370.4z M50.3,397.5h17.3V413H50.3V397.5z    M50.3,424.6h17.3v15.5H50.3V424.6z M13.5,71.9h17.3v15.5H13.5V71.9z M13.5,99h17.3v15.5H13.5V99z M13.5,126.2h17.3v15.5H13.5   V126.2z M13.5,153.3h17.3v15.5H13.5V153.3z M13.5,180.5h17.3V196H13.5V180.5z M13.5,207.6h17.3v15.5H13.5V207.6z M13.5,234.7h17.3   v15.5H13.5V234.7z M13.5,261.9h17.3v15.5H13.5V261.9z M13.5,289h17.3v15.5H13.5V289z M13.5,316.1h17.3v15.4H13.5V316.1z    M13.5,343.3h17.3v15.5H13.5V343.3z M13.5,370.4h17.3v15.5H13.5V370.4z M13.5,397.5h17.3V413H13.5V397.5z M13.5,424.6h17.3v15.5   H13.5V424.6z" fill="#8ABE4F" id="XMLID_1144_"/><path d="M436.9,63V449H506V63H436.9z M461.7,440.1h-17.3v-15.5h17.3V440.1z M461.7,413h-17.3   v-15.5h17.3V413z M461.7,385.8h-17.3v-15.5h17.3V385.8z M461.7,358.7h-17.3v-15.5h17.3V358.7z M461.7,331.5h-17.3V316h17.3V331.5z    M461.7,304.4h-17.3v-15.5h17.3V304.4z M461.7,277.3h-17.3v-15.5h17.3V277.3z M461.7,250.1h-17.3v-15.5h17.3V250.1z M461.7,223   h-17.3v-15.5h17.3V223z M461.7,195.9h-17.3v-15.4h17.3V195.9z M461.7,168.7h-17.3v-15.5h17.3V168.7z M461.7,141.6h-17.3v-15.5h17.3   V141.6z M461.7,114.5h-17.3V99h17.3V114.5z M461.7,87.4h-17.3V71.9h17.3V87.4z M498.5,440.1h-17.3v-15.5h17.3V440.1z M498.5,413   h-17.3v-15.5h17.3V413z M498.5,385.8h-17.3v-15.5h17.3V385.8z M498.5,358.7h-17.3v-15.5h17.3V358.7z M498.5,331.5h-17.3V316h17.3   V331.5z M498.5,304.4h-17.3v-15.5h17.3V304.4z M498.5,277.3h-17.3v-15.5h17.3V277.3z M498.5,250.1h-17.3v-15.5h17.3V250.1z    M498.5,223h-17.3v-15.5h17.3V223z M498.5,195.9h-17.3v-15.4h17.3V195.9z M498.5,168.7h-17.3v-15.5h17.3V168.7z M498.5,141.6h-17.3   v-15.5h17.3V141.6z M498.5,114.5h-17.3V99h17.3V114.5z M498.5,87.4h-17.3V71.9h17.3V87.4z" fill="#8ABE4F" id="XMLID_1118_"/><path d="M372.6,449h62V222.5h-61L372.6,449z M405.1,226.3h26.7v6.9h-26.7V226.3z M405.1,236.9   h26.7v6.9h-26.7V236.9z M405.1,247.6h26.7v6.9h-26.7V247.6z M405.1,258.1h26.7v6.9h-26.7V258.1z M405.1,268.7h26.7v6.9h-26.7V268.7   z M405.1,279.3h26.7v6.9h-26.7V279.3z M405.1,289.9h26.7v6.9h-26.7V289.9z M405.1,300.5h26.7v6.9h-26.7V300.5z M405.1,311.1h26.7   v6.9h-26.7V311.1z M405.1,321.7h26.7v6.9h-26.7V321.7z M405.1,332.3h26.7v6.9h-26.7V332.3z M405.1,342.9h26.7v6.9h-26.7V342.9z    M405.1,353.5h26.7v6.9h-26.7V353.5z M405.1,364.2h26.7v6.9h-26.7V364.2z M405.1,374.7h26.7v6.9h-26.7V374.7z M405.1,385.3h26.7   v6.9h-26.7V385.3z M405.1,396h26.7v6.9h-26.7V396z M405.1,406.5h26.7v6.9h-26.7V406.5z M405.1,417.1h26.7v6.9h-26.7V417.1z    M405.1,427.8h26.7v6.9h-26.7V427.8z M405.1,438.3h26.7v6.9h-26.7V438.3z M376,226.3h26.2v6.9H376V226.3z M376,236.9h26.2v6.9H376   V236.9z M376,247.6h26.2v6.9H376V247.6z M376,258.1h26.2v6.9H376V258.1z M376,268.7h26.2v6.9H376V268.7z M376,279.3h26.2v6.9H376   V279.3z M376,289.9h26.2v6.9H376V289.9z M376,300.5h26.2v6.9H376V300.5z M376,311.1h26.2v6.9H376V311.1z M376,321.7h26.2v6.9H376   V321.7z M376,332.3h26.2v6.9H376V332.3z M376,342.9h26.2v6.9H376V342.9z M376,353.5h26.2v6.9H376V353.5z M376,364.2h26.2v6.9H376   V364.2z M376,374.7h26.2v6.9H376V374.7z M376,385.3h26.2v6.9H376V385.3z M376,396h26.2v6.9H376V396z M376,406.5h26.2v6.9H376V406.5   z M376,417.1h26.2v6.9H376V417.1z M376,427.8h26.2v6.9H376V427.8z M376,438.3h26.2v6.9H376V438.3z" fill="#8ABE4F" id="XMLID_1453_"/><g id="XMLID_1216_"><path d="M78.2,449h293.1V301.3H78.2V449z M330.9,371.4h13.6V383h-13.6V371.4z M330.9,384h13.6    V395h-13.6V384z M330.9,398.3h13.6V410h-13.6V398.3z M330.9,411h13.6v10.9h-13.6V411z M316.2,371.4h13.6V383h-13.6V371.4z     M316.2,384h13.6V395h-13.6V384z M316.2,398.3h13.6V410h-13.6V398.3z M316.2,411h13.6v10.9h-13.6V411z M298.9,371.4h13.6V383    h-13.6V371.4z M298.9,384h13.6V395h-13.6V384z M298.9,398.3h13.6V410h-13.6V398.3z M298.9,411h13.6v10.9h-13.6V411z M284.3,371.4    h13.6V383h-13.6V371.4z M284.3,384h13.6V395h-13.6V384z M284.3,398.3h13.6V410h-13.6V398.3z M284.3,411h13.6v10.9h-13.6V411z     M191.4,362.3h65.7v82.5h-65.7V362.3z M150.5,371.4h13.6V383h-13.6V371.4z M150.5,384h13.6V395h-13.6V384z M150.5,398.3h13.6V410    h-13.6V398.3z M150.5,411h13.6v10.9h-13.6V411z M135.9,371.4h13.6V383h-13.6V371.4z M135.9,384h13.6V395h-13.6V384z M135.9,398.3    h13.6V410h-13.6V398.3z M135.9,411h13.6v10.9h-13.6V411z M118.7,371.4h13.6V383h-13.6L118.7,371.4z M118.7,384h13.6V395h-13.6    L118.7,384z M118.7,398.3h13.6V410h-13.6L118.7,398.3z M118.7,411h13.6v10.9h-13.6L118.7,411z M104.1,371.4h13.6V383h-13.6V371.4z     M104.1,384h13.6V395h-13.6V384z M104.1,398.3h13.6V410h-13.6V398.3z M104.1,411h13.6v10.9h-13.6V411z" fill="#8ABE4F" id="XMLID_1219_"/><path d="M78.2,141.8v156.9h293.1V141.8H78.2z M128.1,292.4H97.9v-24.3h30.1V292.4z M128.1,265.9    H97.9v-25.7h30.1V265.9z M128.8,221.1H98.6v-24h30.1V221.1z M128.8,195.1H98.6v-26.1h30.1V195.1z M160.4,292.4h-30.1v-24.3h30.1    V292.4z M160.4,265.9h-30.1v-25.7h30.1V265.9z M161,221.1h-30.1v-24H161V221.1z M161,195.1h-30.1v-26.1H161V195.1z M211.5,221.1    h-25.3v-25h25.3V221.1z M211.5,193.9h-25.3v-25h25.3V193.9z M240.3,221.1h-26.5v-25h26.5V221.1z M240.3,193.9h-26.5v-25h26.5    V193.9z M269.5,221.1h-27v-25h27V221.1z M269.5,193.9h-27v-25h27V193.9z M323.5,292.4h-30.1v-23.5h30.1V292.4z M323.5,266.7h-30.1    v-26.6h30.1V266.7z M324.7,221.1h-30.1v-25h30.1V221.1z M324.7,193.9h-30.1v-25h30.1V193.9z M355.7,292.4h-30.1v-23.5h30.1V292.4z     M355.7,266.7h-30.1v-26.6h30.1V266.7z M357,221.1h-30.1v-25H357V221.1z M357,193.9h-30.1v-25H357V193.9z" fill="#8ABE4F" id="XMLID_1265_"/></g></g></svg>